<?xml version="1.0" encoding="UTF-8"?>
<!--
  VulcanOS Logo - Icon Variant
  Official Arch Linux logo flipped vertically to form a "V"

  Design concept:
  - Exact Arch Linux logo geometry, inverted
  - Creates a V/crucible shape
  - Forge gradient colors replacing Arch blue
  - Homage to Arch Linux heritage

  Original Arch logo: https://sources.archlinux.org/other/artwork/
  Usage: Favicons, app icons, small contexts
  Minimum size: 16px
-->
<svg
  xmlns="http://www.w3.org/2000/svg"
  viewBox="0 0 200 200"
  width="200"
  height="200"
>
  <defs>
    <!-- Primary gradient - forge glow (top to bottom, which becomes bottom-to-top when flipped) -->
    <linearGradient id="forgeGlow" x1="50%" y1="100%" x2="50%" y2="0%">
      <stop offset="0%" stop-color="#fbbf24"/>
      <stop offset="50%" stop-color="#f97316"/>
      <stop offset="100%" stop-color="#ea580c"/>
    </linearGradient>
  </defs>

  <!--
    Official Arch Linux logo path, flipped vertically via scale(1,-1)
    translate(0,-200) compensates for the flip to keep it in view
  -->
  <g transform="translate(0, 200) scale(1, -1)">
    <path
      d="m 105.8125,16.625 c -7.39687,18.135158 -11.858304,29.997682 -20.09375,47.59375 5.04936,5.35232 11.247211,11.585364 21.3125,18.625 C 96.210077,78.390904 88.828713,73.920352 83.3125,69.28125 72.7727,91.274163 56.259864,122.60209 22.75,182.8125 49.087628,167.60733 69.504089,158.23318 88.53125,154.65625 87.714216,151.1422 87.2497,147.34107 87.28125,143.375 l 0.03125,-0.84375 c 0.417917,-16.87382 9.195665,-29.84979 19.59375,-28.96875 10.39809,0.88104 18.48041,15.28242 18.0625,32.15625 -0.0786,3.17512 -0.43674,6.22955 -1.0625,9.0625 18.82058,3.68164 39.01873,13.03179 65,28.03125 -5.123,-9.4318 -9.69572,-17.93388 -14.0625,-26.03125 -6.87839,-5.33121 -14.05289,-12.2698 -28.6875,-19.78125 10.05899,2.61375 17.2611,5.62932 22.875,9 C 124.63297,63.338161 121.03766,52.354109 105.8125,16.625 z"
      fill="url(#forgeGlow)"
      fill-rule="evenodd"
    />
  </g>
</svg>
